<svg width="56" height="56" viewBox="0 0 56 56" fill="none" xmlns="http://www.w3.org/2000/svg">
<path d="M56 31.7707V24.2293C52.1477 22.8597 49.714 22.4747 48.489 19.5183V19.516C47.2593 16.5503 48.7223 14.5367 50.4653 10.8663L45.1337 5.53467C41.4913 7.266 39.4567 8.743 36.484 7.511H36.4817C33.5207 6.28367 33.1333 3.83367 31.7707 0H24.2293C22.8713 3.815 22.4817 6.28133 19.5183 7.511H19.516C16.5503 8.743 14.5413 7.28233 10.8663 5.53467L5.53467 10.8663C7.273 14.525 8.743 16.5457 7.511 19.516C6.28133 22.4817 3.815 22.8713 0 24.2293V31.7707C3.808 33.124 6.28133 33.5183 7.511 36.4817C8.74767 39.473 7.245 41.5357 5.53467 45.1313L10.8663 50.4653C14.511 48.7317 16.5457 47.257 19.516 48.489H19.5183C22.4817 49.7163 22.869 52.1733 24.2293 56H31.7707C33.1287 52.1827 33.5207 49.7233 36.5003 48.482H36.5027C39.4473 47.2593 41.4493 48.7177 45.1313 50.4677L50.463 45.1337C48.727 41.4867 47.2547 39.4567 48.4843 36.4863C49.714 33.5207 52.1897 33.1263 56 31.7707ZM28 37.3333C22.8457 37.3333 18.6667 33.1543 18.6667 28C18.6667 22.8457 22.8457 18.6667 28 18.6667C33.1543 18.6667 37.3333 22.8457 37.3333 28C37.3333 33.1543 33.1543 37.3333 28 37.3333Z" fill="white"/>
</svg>
