<svg width="346" height="133" viewBox="0 0 346 133" fill="none" xmlns="http://www.w3.org/2000/svg">
<circle cx="223.288" cy="116.989" r="3.5" transform="rotate(30.3691 223.288 116.989)" fill="#00799F"/>
<circle cx="242.796" cy="128.625" r="3.5" transform="rotate(3.21014 242.796 128.625)" fill="#00799F"/>
<circle cx="289.471" cy="82.1663" r="3.5" transform="rotate(3.21014 289.471 82.1663)" fill="#00799F"/>
<circle cx="70.9323" cy="127.531" r="3.5" transform="rotate(30.3691 70.9323 127.531)" fill="#00799F"/>
<circle cx="266.246" cy="49.815" r="3.5" transform="rotate(3.21014 266.246 49.815)" fill="#00799F"/>
<circle cx="192.789" cy="99.0413" r="3.5" transform="rotate(30.3691 192.789 99.0413)" fill="#00799F"/>
<circle cx="208.152" cy="50.8704" r="3.5" transform="rotate(30.3691 208.152 50.8704)" fill="#00799F"/>
<circle cx="83.5704" cy="74.6243" r="3.5" transform="rotate(3.21014 83.5704 74.6243)" fill="#00799F"/>
<circle cx="182.052" cy="33.0739" r="3.5" transform="rotate(3.21014 182.052 33.0739)" fill="#00799F"/>
<circle cx="320.024" cy="84.4279" r="3.5" transform="rotate(30.3691 320.024 84.4279)" fill="#00799F"/>
<circle cx="91.2984" cy="39.9425" r="3.5" transform="rotate(3.21014 91.2984 39.9425)" fill="#00799F"/>
<circle cx="42.3082" cy="60.2912" r="3.5" transform="rotate(3.21014 42.3082 60.2912)" fill="#00799F"/>
<circle cx="14.6905" cy="46.9425" r="3.5" transform="rotate(3.21014 14.6905 46.9425)" fill="#00799F"/>
<circle cx="239.976" cy="10.4072" r="3.5" transform="rotate(30.3691 239.976 10.4072)" fill="#00799F"/>
<circle cx="3.69048" cy="91.9425" r="3.5" transform="rotate(3.21014 3.69048 91.9425)" fill="#00799F"/>
<circle cx="133.156" cy="83.4148" r="3.5" transform="rotate(3.21014 133.156 83.4148)" fill="#00799F"/>
<circle cx="211.744" cy="3.6905" r="3.5" transform="rotate(3.21014 211.744 3.6905)" fill="#00799F"/>
<circle cx="301.08" cy="53.7717" r="3.5" transform="rotate(3.21014 301.08 53.7717)" fill="#00799F"/>
<circle cx="61.8864" cy="115.276" r="3.5" transform="rotate(30.3691 61.8864 115.276)" fill="#00799F"/>
<circle cx="212.545" cy="60.8251" r="3.5" transform="rotate(3.21014 212.545 60.8251)" fill="#00799F"/>
<circle cx="170.117" cy="49.4313" r="3.5" transform="rotate(3.21014 170.117 49.4313)" fill="#00799F"/>
<circle cx="303.01" cy="97.6391" r="3.5" transform="rotate(30.3691 303.01 97.6391)" fill="#00799F"/>
<circle cx="137.047" cy="67.6079" r="3.5" transform="rotate(3.21014 137.047 67.6079)" fill="#00799F"/>
<circle cx="57.8912" cy="68.1762" r="3.5" transform="rotate(3.21014 57.8912 68.1762)" fill="#00799F"/>
<circle cx="155.112" cy="102.675" r="3.5" transform="rotate(3.21014 155.112 102.675)" fill="#00799F"/>
<circle cx="340.973" cy="119.884" r="3.5" transform="rotate(30.3691 340.973 119.884)" fill="#00799F"/>
<circle cx="97.2984" cy="126.943" r="3.5" transform="rotate(3.21014 97.2984 126.943)" fill="#00799F"/>
<circle cx="227.86" cy="61.7165" r="3.5" transform="rotate(30.3691 227.86 61.7165)" fill="#00799F"/>
</svg>
