<svg width="276" height="97" viewBox="0 0 276 97" fill="none" xmlns="http://www.w3.org/2000/svg">
<circle cx="247.995" cy="70.7253" r="3.5" transform="rotate(30.3691 247.995 70.7253)" fill="#00799F"/>
<circle cx="77.6652" cy="64.3281" r="3.5" transform="rotate(30.3691 77.6652 64.3281)" fill="#00799F"/>
<circle cx="272.129" cy="20.0955" r="3.5" transform="rotate(3.21014 272.129 20.0955)" fill="#00799F"/>
<circle cx="119.051" cy="88.6309" r="3.5" transform="rotate(3.21014 119.051 88.6309)" fill="#00799F"/>
<circle cx="233.388" cy="67.9612" r="3.5" transform="rotate(30.3691 233.388 67.9612)" fill="#00799F"/>
<circle cx="128.963" cy="91.4975" r="3.5" transform="rotate(30.3691 128.963 91.4975)" fill="#00799F"/>
<circle cx="61.4874" cy="61.3647" r="3.5" transform="rotate(3.21014 61.4874 61.3647)" fill="#00799F"/>
<circle cx="85.7134" cy="21.2293" r="3.5" transform="rotate(3.21014 85.7134 21.2293)" fill="#00799F"/>
<circle cx="20.4864" cy="78.095" r="3.5" transform="rotate(3.21014 20.4864 78.095)" fill="#00799F"/>
<circle cx="60.8345" cy="37.2904" r="3.5" transform="rotate(3.21014 60.8345 37.2904)" fill="#00799F"/>
<circle cx="193.925" cy="3.6905" r="3.5" transform="rotate(3.21014 193.925 3.6905)" fill="#00799F"/>
<circle cx="229.859" cy="23.7342" r="3.5" transform="rotate(3.21014 229.859 23.7342)" fill="#00799F"/>
<circle cx="178.314" cy="49.8887" r="3.5" transform="rotate(3.21014 178.314 49.8887)" fill="#00799F"/>
<circle cx="63.1055" cy="76.2293" r="3.5" transform="rotate(3.21014 63.1055 76.2293)" fill="#00799F"/>
<circle cx="113.145" cy="33.2133" r="3.5" transform="rotate(3.21014 113.145 33.2133)" fill="#00799F"/>
<circle cx="101.266" cy="48.5722" r="3.5" transform="rotate(3.21014 101.266 48.5722)" fill="#00799F"/>
<circle cx="3.69048" cy="56.1199" r="3.5" transform="rotate(3.21014 3.69048 56.1199)" fill="#00799F"/>
</svg>
