<svg width="448" height="180" viewBox="0 0 448 180" fill="none" xmlns="http://www.w3.org/2000/svg">
<circle cx="395.042" cy="156.569" r="3.5" transform="rotate(30.3691 395.042 156.569)" fill="#00799F"/>
<circle cx="47.9831" cy="163.129" r="3.5" transform="rotate(30.3691 47.9831 163.129)" fill="#00799F"/>
<circle cx="366.933" cy="174.869" r="3.5" transform="rotate(30.3691 366.933 174.869)" fill="#00799F"/>
<circle cx="4.78927" cy="165.635" r="3.5" transform="rotate(30.3691 4.78927 165.635)" fill="#00799F"/>
<circle cx="211.166" cy="159.377" r="3.5" transform="rotate(3.21014 211.166 159.377)" fill="#00799F"/>
<circle cx="312.105" cy="163.604" r="3.5" transform="rotate(30.3691 312.105 163.604)" fill="#00799F"/>
<circle cx="337.835" cy="147.387" r="3.5" transform="rotate(30.3691 337.835 147.387)" fill="#00799F"/>
<circle cx="374.335" cy="144.436" r="3.5" transform="rotate(30.3691 374.335 144.436)" fill="#00799F"/>
<circle cx="434.752" cy="132.318" r="3.5" transform="rotate(30.3691 434.752 132.318)" fill="#00799F"/>
<circle cx="148.871" cy="162.894" r="3.5" transform="rotate(3.21014 148.871 162.894)" fill="#00799F"/>
<circle cx="252.964" cy="149.812" r="3.5" transform="rotate(30.3691 252.964 149.812)" fill="#00799F"/>
<circle cx="114.533" cy="167.979" r="3.5" transform="rotate(3.21014 114.533 167.979)" fill="#00799F"/>
<circle cx="177.985" cy="33.6905" r="3.5" transform="rotate(3.21014 177.985 33.6905)" fill="#00799F"/>
<circle cx="235.196" cy="106.948" r="3.5" transform="rotate(30.3691 235.196 106.948)" fill="#00799F"/>
<circle cx="204.814" cy="77.1996" r="3.5" transform="rotate(30.3691 204.814 77.1996)" fill="#00799F"/>
<circle cx="185.084" cy="22.7892" r="3.5" transform="rotate(30.3691 185.084 22.7892)" fill="#00799F"/>
<circle cx="137.339" cy="47.0668" r="3.5" transform="rotate(3.21014 137.339 47.0668)" fill="#00799F"/>
<circle cx="113.377" cy="45.723" r="3.5" transform="rotate(3.21014 113.377 45.723)" fill="#00799F"/>
<circle cx="234.084" cy="4.78924" r="3.5" transform="rotate(30.3691 234.084 4.78924)" fill="#00799F"/>
<circle cx="414.429" cy="107.66" r="3.5" transform="rotate(30.3691 414.429 107.66)" fill="#00799F"/>
<circle cx="442.489" cy="150.76" r="3.5" transform="rotate(30.3691 442.489 150.76)" fill="#00799F"/>
<circle cx="395.481" cy="116.26" r="3.5" transform="rotate(30.3691 395.481 116.26)" fill="#00799F"/>
<circle cx="370.966" cy="100.736" r="3.5" transform="rotate(30.3691 370.966 100.736)" fill="#00799F"/>
<circle cx="189.594" cy="43.9882" r="3.5" transform="rotate(3.21014 189.594 43.9882)" fill="#00799F"/>
<circle cx="351.869" cy="111.568" r="3.5" transform="rotate(30.3691 351.869 111.568)" fill="#00799F"/>
<circle cx="337.68" cy="116.003" r="3.5" transform="rotate(30.3691 337.68 116.003)" fill="#00799F"/>
<circle cx="199.988" cy="108.672" r="3.5" transform="rotate(3.21014 199.988 108.672)" fill="#00799F"/>
<circle cx="169.606" cy="78.9238" r="3.5" transform="rotate(3.21014 169.606 78.9238)" fill="#00799F"/>
<circle cx="189.724" cy="113.104" r="3.5" transform="rotate(3.21014 189.724 113.104)" fill="#00799F"/>
<circle cx="314.149" cy="112.645" r="3.5" transform="rotate(30.3691 314.149 112.645)" fill="#00799F"/>
<circle cx="151.985" cy="56.6905" r="3.5" transform="rotate(3.21014 151.985 56.6905)" fill="#00799F"/>
<circle cx="225.331" cy="121.11" r="3.5" transform="rotate(3.21014 225.331 121.11)" fill="#00799F"/>
<circle cx="243.919" cy="111.136" r="3.5" transform="rotate(3.21014 243.919 111.136)" fill="#00799F"/>
<circle cx="212.985" cy="13.6905" r="3.5" transform="rotate(3.21014 212.985 13.6905)" fill="#00799F"/>
<circle cx="319.446" cy="127.34" r="3.5" transform="rotate(30.3691 319.446 127.34)" fill="#00799F"/>
</svg>
