<svg width="424" height="165" viewBox="0 0 424 165" fill="none" xmlns="http://www.w3.org/2000/svg">
<circle cx="193.273" cy="155.87" r="3.5" transform="rotate(3.21014 193.273 155.87)" fill="#00799F"/>
<circle cx="299.224" cy="148.366" r="3.5" transform="rotate(30.3691 299.224 148.366)" fill="#00799F"/>
<circle cx="218.906" cy="145.289" r="3.5" transform="rotate(3.21014 218.906 145.289)" fill="#00799F"/>
<circle cx="326.86" cy="150.652" r="3.5" transform="rotate(30.3691 326.86 150.652)" fill="#00799F"/>
<circle cx="269.668" cy="133.112" r="3.5" transform="rotate(3.21014 269.668 133.112)" fill="#00799F"/>
<circle cx="55.5392" cy="150.594" r="3.5" transform="rotate(30.3691 55.5392 150.594)" fill="#00799F"/>
<circle cx="4.78921" cy="152.149" r="3.5" transform="rotate(30.3691 4.78921 152.149)" fill="#00799F"/>
<circle cx="295.879" cy="76.4913" r="3.5" transform="rotate(3.21014 295.879 76.4913)" fill="#00799F"/>
<circle cx="95.9806" cy="34.7892" r="3.5" transform="rotate(30.3691 95.9806 34.7892)" fill="#00799F"/>
<circle cx="152.123" cy="139.54" r="3.5" transform="rotate(3.21014 152.123 139.54)" fill="#00799F"/>
<circle cx="250.884" cy="55.8361" r="3.5" transform="rotate(30.3691 250.884 55.8361)" fill="#00799F"/>
<circle cx="145.144" cy="121.12" r="3.5" transform="rotate(3.21014 145.144 121.12)" fill="#00799F"/>
<circle cx="72.7896" cy="161.131" r="3.5" transform="rotate(3.21014 72.7896 161.131)" fill="#00799F"/>
<circle cx="225.981" cy="4.78924" r="3.5" transform="rotate(30.3691 225.981 4.78924)" fill="#00799F"/>
<circle cx="115.2" cy="101.413" r="3.5" transform="rotate(3.21014 115.2 101.413)" fill="#00799F"/>
<circle cx="84.8184" cy="71.6646" r="3.5" transform="rotate(3.21014 84.8184 71.6646)" fill="#00799F"/>
<circle cx="177.412" cy="45.8091" r="3.5" transform="rotate(3.21014 177.412 45.8091)" fill="#00799F"/>
<circle cx="348.802" cy="83.5356" r="3.5" transform="rotate(30.3691 348.802 83.5356)" fill="#00799F"/>
<circle cx="133.518" cy="78.4023" r="3.5" transform="rotate(3.21014 133.518 78.4023)" fill="#00799F"/>
<circle cx="40.4859" cy="94.2175" r="3.5" transform="rotate(3.21014 40.4859 94.2175)" fill="#00799F"/>
<circle cx="47.2877" cy="133.66" r="3.5" transform="rotate(3.21014 47.2877 133.66)" fill="#00799F"/>
<circle cx="145.584" cy="23.9925" r="3.5" transform="rotate(3.21014 145.584 23.9925)" fill="#00799F"/>
<circle cx="231.952" cy="19.8225" r="3.5" transform="rotate(3.21014 231.952 19.8225)" fill="#00799F"/>
<circle cx="85.1915" cy="100.731" r="3.5" transform="rotate(3.21014 85.1915 100.731)" fill="#00799F"/>
<circle cx="419.167" cy="137.516" r="3.5" transform="rotate(30.3691 419.167 137.516)" fill="#00799F"/>
<circle cx="171.383" cy="117.584" r="3.5" transform="rotate(3.21014 171.383 117.584)" fill="#00799F"/>
<circle cx="47.8819" cy="43.6905" r="3.5" transform="rotate(3.21014 47.8819 43.6905)" fill="#00799F"/>
<circle cx="340.423" cy="135.418" r="3.5" transform="rotate(30.3691 340.423 135.418)" fill="#00799F"/>
<circle cx="14.631" cy="125.464" r="3.5" transform="rotate(30.3691 14.631 125.464)" fill="#00799F"/>
<circle cx="385.936" cy="124.998" r="3.5" transform="rotate(30.3691 385.936 124.998)" fill="#00799F"/>
<circle cx="158.882" cy="25.6905" r="3.5" transform="rotate(3.21014 158.882 25.6905)" fill="#00799F"/>
<circle cx="135.244" cy="65.4786" r="3.5" transform="rotate(3.21014 135.244 65.4786)" fill="#00799F"/>
</svg>
