<svg width="281" height="102" viewBox="0 0 281 102" fill="none" xmlns="http://www.w3.org/2000/svg">
<circle cx="196.985" cy="96.8538" r="3.5" transform="rotate(30.3691 196.985 96.8538)" fill="#00799F"/>
<circle cx="199.359" cy="54.8936" r="3.5" transform="rotate(3.21014 199.359 54.8936)" fill="#00799F"/>
<circle cx="194.61" cy="14.5644" r="3.5" transform="rotate(3.21014 194.61 14.5644)" fill="#00799F"/>
<circle cx="181.49" cy="69.9166" r="3.5" transform="rotate(3.21014 181.49 69.9166)" fill="#00799F"/>
<circle cx="185.018" cy="7.01533" r="3.5" transform="rotate(3.21014 185.018 7.01533)" fill="#00799F"/>
<circle cx="43.2984" cy="53.6905" r="3.5" transform="rotate(3.21014 43.2984 53.6905)" fill="#00799F"/>
<circle cx="71.3267" cy="69.7473" r="3.5" transform="rotate(3.21014 71.3267 69.7473)" fill="#00799F"/>
<circle cx="82.5337" cy="66.3696" r="3.5" transform="rotate(3.21014 82.5337 66.3696)" fill="#00799F"/>
<circle cx="58.6905" cy="42.6905" r="3.5" transform="rotate(3.21014 58.6905 42.6905)" fill="#00799F"/>
<circle cx="211.613" cy="52.11" r="3.5" transform="rotate(30.3691 211.613 52.11)" fill="#00799F"/>
<circle cx="78.7833" cy="26.0963" r="3.5" transform="rotate(3.21014 78.7833 26.0963)" fill="#00799F"/>
<circle cx="50.2481" cy="70.5682" r="3.5" transform="rotate(3.21014 50.2481 70.5682)" fill="#00799F"/>
<circle cx="91.4268" cy="32.8149" r="3.5" transform="rotate(3.21014 91.4268 32.8149)" fill="#00799F"/>
<circle cx="20.0435" cy="19.7972" r="3.5" transform="rotate(3.21014 20.0435 19.7972)" fill="#00799F"/>
<circle cx="4.0689" cy="18.9012" r="3.5" transform="rotate(3.21014 4.0689 18.9012)" fill="#00799F"/>
<circle cx="90.1387" cy="55.7788" r="3.5" transform="rotate(3.21014 90.1387 55.7788)" fill="#00799F"/>
<circle cx="10.9825" cy="56.3471" r="3.5" transform="rotate(3.21014 10.9825 56.3471)" fill="#00799F"/>
<circle cx="233.69" cy="3.6905" r="3.5" transform="rotate(3.21014 233.69 3.6905)" fill="#00799F"/>
<circle cx="40.2218" cy="79.3137" r="3.5" transform="rotate(30.3691 40.2218 79.3137)" fill="#00799F"/>
<circle cx="277.032" cy="27.1997" r="3.5" transform="rotate(3.21014 277.032 27.1997)" fill="#00799F"/>
<circle cx="29.7531" cy="95.2011" r="3.5" transform="rotate(30.3691 29.7531 95.2011)" fill="#00799F"/>
<circle cx="221.829" cy="47.1397" r="3.5" transform="rotate(3.21014 221.829 47.1397)" fill="#00799F"/>
<circle cx="217.08" cy="6.8105" r="3.5" transform="rotate(3.21014 217.08 6.8105)" fill="#00799F"/>
<circle cx="141.75" cy="10.598" r="3.5" transform="rotate(3.21014 141.75 10.598)" fill="#00799F"/>
<circle cx="74.1446" cy="90.9383" r="3.5" transform="rotate(3.21014 74.1446 90.9383)" fill="#00799F"/>
<circle cx="26.3604" cy="32.1702" r="3.5" transform="rotate(3.21014 26.3604 32.1702)" fill="#00799F"/>
<circle cx="224.467" cy="67.7553" r="3.5" transform="rotate(30.3691 224.467 67.7553)" fill="#00799F"/>
<circle cx="85.6314" cy="82.5684" r="3.5" transform="rotate(3.21014 85.6314 82.5684)" fill="#00799F"/>
<circle cx="94.4683" cy="50.0123" r="3.5" transform="rotate(3.21014 94.4683 50.0123)" fill="#00799F"/>
</svg>
