<svg width="455" height="188" viewBox="0 0 455 188" fill="none" xmlns="http://www.w3.org/2000/svg">
<circle cx="28.9494" cy="165.429" r="3.5" transform="rotate(30.3691 28.9494 165.429)" fill="#00799F"/>
<circle cx="239.989" cy="173.174" r="3.5" transform="rotate(3.21014 239.989 173.174)" fill="#00799F"/>
<circle cx="329.04" cy="177.708" r="3.5" transform="rotate(30.3691 329.04 177.708)" fill="#00799F"/>
<circle cx="188.285" cy="184.296" r="3.5" transform="rotate(3.21014 188.285 184.296)" fill="#00799F"/>
<circle cx="108.25" cy="179.789" r="3.5" transform="rotate(30.3691 108.25 179.789)" fill="#00799F"/>
<circle cx="243.442" cy="110.165" r="3.5" transform="rotate(30.3691 243.442 110.165)" fill="#00799F"/>
<circle cx="65.171" cy="129.316" r="3.5" transform="rotate(3.21014 65.171 129.316)" fill="#00799F"/>
<circle cx="244.789" cy="18.7892" r="3.5" transform="rotate(30.3691 244.789 18.7892)" fill="#00799F"/>
<circle cx="133.447" cy="144.162" r="3.5" transform="rotate(3.21014 133.447 144.162)" fill="#00799F"/>
<circle cx="287.135" cy="73.1806" r="3.5" transform="rotate(30.3691 287.135 73.1806)" fill="#00799F"/>
<circle cx="16.6905" cy="102.69" r="3.5" transform="rotate(3.21014 16.6905 102.69)" fill="#00799F"/>
<circle cx="264.477" cy="25.8339" r="3.5" transform="rotate(30.3691 264.477 25.8339)" fill="#00799F"/>
<circle cx="263.725" cy="81.4844" r="3.5" transform="rotate(30.3691 263.725 81.4844)" fill="#00799F"/>
<circle cx="145.69" cy="18.6905" r="3.5" transform="rotate(3.21014 145.69 18.6905)" fill="#00799F"/>
<circle cx="259.69" cy="10.6905" r="3.5" transform="rotate(3.21014 259.69 10.6905)" fill="#00799F"/>
<circle cx="378.855" cy="102.585" r="3.5" transform="rotate(30.3691 378.855 102.585)" fill="#00799F"/>
<circle cx="449.664" cy="149.873" r="3.5" transform="rotate(30.3691 449.664 149.873)" fill="#00799F"/>
<circle cx="306.69" cy="50.6905" r="3.5" transform="rotate(3.21014 306.69 50.6905)" fill="#00799F"/>
<circle cx="255.695" cy="53.8663" r="3.5" transform="rotate(3.21014 255.695 53.8663)" fill="#00799F"/>
<circle cx="226.796" cy="51.2438" r="3.5" transform="rotate(3.21014 226.796 51.2438)" fill="#00799F"/>
<circle cx="107.273" cy="128.672" r="3.5" transform="rotate(3.21014 107.273 128.672)" fill="#00799F"/>
<circle cx="99.6905" cy="48.6905" r="3.5" transform="rotate(3.21014 99.6905 48.6905)" fill="#00799F"/>
<circle cx="119.691" cy="38.6905" r="3.5" transform="rotate(3.21014 119.691 38.6905)" fill="#00799F"/>
<circle cx="207.69" cy="3.6905" r="3.5" transform="rotate(3.21014 207.69 3.6905)" fill="#00799F"/>
<circle cx="367.69" cy="77.6905" r="3.5" transform="rotate(3.21014 367.69 77.6905)" fill="#00799F"/>
<circle cx="161.403" cy="145.73" r="3.5" transform="rotate(3.21014 161.403 145.73)" fill="#00799F"/>
<circle cx="224.874" cy="121.246" r="3.5" transform="rotate(3.21014 224.874 121.246)" fill="#00799F"/>
<circle cx="4.78927" cy="110.789" r="3.5" transform="rotate(30.3691 4.78927 110.789)" fill="#00799F"/>
<circle cx="197.85" cy="138.76" r="3.5" transform="rotate(3.21014 197.85 138.76)" fill="#00799F"/>
<circle cx="77.6905" cy="61.6905" r="3.5" transform="rotate(3.21014 77.6905 61.6905)" fill="#00799F"/>
<circle cx="43.8966" cy="80.0469" r="3.5" transform="rotate(3.21014 43.8966 80.0469)" fill="#00799F"/>
</svg>
