<svg width="409" height="172" viewBox="0 0 409 172" fill="none" xmlns="http://www.w3.org/2000/svg">
<circle cx="298.361" cy="140.025" r="3.5" transform="rotate(30.3691 298.361 140.025)" fill="#00799F"/>
<circle cx="341.231" cy="155.873" r="3.5" transform="rotate(30.3691 341.231 155.873)" fill="#00799F"/>
<circle cx="4.78921" cy="144.314" r="3.5" transform="rotate(30.3691 4.78921 144.314)" fill="#00799F"/>
<circle cx="15.4669" cy="132.026" r="3.5" transform="rotate(30.3691 15.4669 132.026)" fill="#00799F"/>
<circle cx="53.0998" cy="139.01" r="3.5" transform="rotate(30.3691 53.0998 139.01)" fill="#00799F"/>
<circle cx="393.828" cy="166.99" r="3.5" transform="rotate(30.3691 393.828 166.99)" fill="#00799F"/>
<circle cx="275.071" cy="130.227" r="3.5" transform="rotate(3.21014 275.071 130.227)" fill="#00799F"/>
<circle cx="377.584" cy="155.153" r="3.5" transform="rotate(30.3691 377.584 155.153)" fill="#00799F"/>
<circle cx="221.155" cy="127.204" r="3.5" transform="rotate(3.21014 221.155 127.204)" fill="#00799F"/>
<circle cx="404.088" cy="147.503" r="3.5" transform="rotate(30.3691 404.088 147.503)" fill="#00799F"/>
<circle cx="67.6461" cy="135.944" r="3.5" transform="rotate(30.3691 67.6461 135.944)" fill="#00799F"/>
<circle cx="249.573" cy="132.299" r="3.5" transform="rotate(30.3691 249.573 132.299)" fill="#00799F"/>
<circle cx="91.5832" cy="15.7892" r="3.5" transform="rotate(30.3691 91.5832 15.7892)" fill="#00799F"/>
<circle cx="161.484" cy="22.6905" r="3.5" transform="rotate(3.21014 161.484 22.6905)" fill="#00799F"/>
<circle cx="41.8858" cy="109.137" r="3.5" transform="rotate(3.21014 41.8858 109.137)" fill="#00799F"/>
<circle cx="351.583" cy="75.7892" r="3.5" transform="rotate(30.3691 351.583 75.7892)" fill="#00799F"/>
<circle cx="88.7383" cy="41.6542" r="3.5" transform="rotate(3.21014 88.7383 41.6542)" fill="#00799F"/>
<circle cx="161.568" cy="46.7406" r="3.5" transform="rotate(3.21014 161.568 46.7406)" fill="#00799F"/>
<circle cx="190.522" cy="48.3646" r="3.5" transform="rotate(3.21014 190.522 48.3646)" fill="#00799F"/>
<circle cx="341.065" cy="57.2576" r="3.5" transform="rotate(30.3691 341.065 57.2576)" fill="#00799F"/>
<circle cx="161.484" cy="3.6905" r="3.5" transform="rotate(3.21014 161.484 3.6905)" fill="#00799F"/>
<circle cx="298.484" cy="57.6905" r="3.5" transform="rotate(3.21014 298.484 57.6905)" fill="#00799F"/>
<circle cx="377.545" cy="101.814" r="3.5" transform="rotate(30.3691 377.545 101.814)" fill="#00799F"/>
<circle cx="77.8292" cy="111.152" r="3.5" transform="rotate(3.21014 77.8292 111.152)" fill="#00799F"/>
<circle cx="209.726" cy="27.4071" r="3.5" transform="rotate(3.21014 209.726 27.4071)" fill="#00799F"/>
<circle cx="134.338" cy="139.361" r="3.5" transform="rotate(3.21014 134.338 139.361)" fill="#00799F"/>
<circle cx="62.3677" cy="83.2427" r="3.5" transform="rotate(3.21014 62.3677 83.2427)" fill="#00799F"/>
<circle cx="132.484" cy="59.6905" r="3.5" transform="rotate(3.21014 132.484 59.6905)" fill="#00799F"/>
<circle cx="183.159" cy="126.074" r="3.5" transform="rotate(3.21014 183.159 126.074)" fill="#00799F"/>
<circle cx="179.24" cy="88.7962" r="3.5" transform="rotate(3.21014 179.24 88.7962)" fill="#00799F"/>
<circle cx="189.449" cy="85.3624" r="3.5" transform="rotate(3.21014 189.449 85.3624)" fill="#00799F"/>
<circle cx="151.228" cy="88.2266" r="3.5" transform="rotate(3.21014 151.228 88.2266)" fill="#00799F"/>
<circle cx="99.2632" cy="68.2855" r="3.5" transform="rotate(3.21014 99.2632 68.2855)" fill="#00799F"/>
<circle cx="111.226" cy="105.013" r="3.5" transform="rotate(3.21014 111.226 105.013)" fill="#00799F"/>
<circle cx="64.4844" cy="33.6905" r="3.5" transform="rotate(3.21014 64.4844 33.6905)" fill="#00799F"/>
</svg>
