<svg width="488" height="173" viewBox="0 0 488 173" fill="none" xmlns="http://www.w3.org/2000/svg">
<circle cx="141.285" cy="159.473" r="3.5" transform="rotate(3.21014 141.285 159.473)" fill="#00799F"/>
<circle cx="199.204" cy="144.693" r="3.5" transform="rotate(3.21014 199.204 144.693)" fill="#00799F"/>
<circle cx="372.083" cy="159.183" r="3.5" transform="rotate(30.3691 372.083 159.183)" fill="#00799F"/>
<circle cx="337.381" cy="69.8852" r="3.5" transform="rotate(3.21014 337.381 69.8852)" fill="#00799F"/>
<circle cx="296.453" cy="125.108" r="3.5" transform="rotate(3.21014 296.453 125.108)" fill="#00799F"/>
<circle cx="33.8878" cy="160.505" r="3.5" transform="rotate(30.3691 33.8878 160.505)" fill="#00799F"/>
<circle cx="232.152" cy="146.541" r="3.5" transform="rotate(3.21014 232.152 146.541)" fill="#00799F"/>
<circle cx="175.838" cy="168.422" r="3.5" transform="rotate(3.21014 175.838 168.422)" fill="#00799F"/>
<circle cx="275.638" cy="153.667" r="3.5" transform="rotate(30.3691 275.638 153.667)" fill="#00799F"/>
<circle cx="4.78921" cy="133.023" r="3.5" transform="rotate(30.3691 4.78921 133.023)" fill="#00799F"/>
<circle cx="400.488" cy="136.42" r="3.5" transform="rotate(30.3691 400.488 136.42)" fill="#00799F"/>
<circle cx="285.63" cy="32.3567" r="3.5" transform="rotate(3.21014 285.63 32.3567)" fill="#00799F"/>
<circle cx="421.249" cy="120.769" r="3.5" transform="rotate(30.3691 421.249 120.769)" fill="#00799F"/>
<circle cx="35.3585" cy="119.479" r="3.5" transform="rotate(3.21014 35.3585 119.479)" fill="#00799F"/>
<circle cx="185.48" cy="11.9839" r="3.5" transform="rotate(30.3691 185.48 11.9839)" fill="#00799F"/>
<circle cx="266.762" cy="91.6728" r="3.5" transform="rotate(30.3691 266.762 91.6728)" fill="#00799F"/>
<circle cx="120.636" cy="81.1939" r="3.5" transform="rotate(3.21014 120.636 81.1939)" fill="#00799F"/>
<circle cx="319.804" cy="96.096" r="3.5" transform="rotate(30.3691 319.804 96.096)" fill="#00799F"/>
<circle cx="212.492" cy="86.3458" r="3.5" transform="rotate(3.21014 212.492 86.3458)" fill="#00799F"/>
<circle cx="110.381" cy="50.8852" r="3.5" transform="rotate(3.21014 110.381 50.8852)" fill="#00799F"/>
<circle cx="101.381" cy="101.885" r="3.5" transform="rotate(3.21014 101.381 101.885)" fill="#00799F"/>
<circle cx="129.381" cy="42.8852" r="3.5" transform="rotate(3.21014 129.381 42.8852)" fill="#00799F"/>
<circle cx="482.238" cy="147.234" r="3.5" transform="rotate(30.3691 482.238 147.234)" fill="#00799F"/>
<circle cx="424.019" cy="139.778" r="3.5" transform="rotate(30.3691 424.019 139.778)" fill="#00799F"/>
<circle cx="207.855" cy="44.0197" r="3.5" transform="rotate(3.21014 207.855 44.0197)" fill="#00799F"/>
<circle cx="203.106" cy="3.6905" r="3.5" transform="rotate(3.21014 203.106 3.6905)" fill="#00799F"/>
<circle cx="223.372" cy="70.9309" r="3.5" transform="rotate(3.21014 223.372 70.9309)" fill="#00799F"/>
<circle cx="151.018" cy="110.942" r="3.5" transform="rotate(3.21014 151.018 110.942)" fill="#00799F"/>
<circle cx="116.652" cy="62.9422" r="3.5" transform="rotate(3.21014 116.652 62.9422)" fill="#00799F"/>
<circle cx="345.572" cy="133.217" r="3.5" transform="rotate(30.3691 345.572 133.217)" fill="#00799F"/>
<circle cx="369.873" cy="111.526" r="3.5" transform="rotate(30.3691 369.873 111.526)" fill="#00799F"/>
<circle cx="59.3863" cy="101.796" r="3.5" transform="rotate(3.21014 59.3863 101.796)" fill="#00799F"/>
<circle cx="273.126" cy="76.8571" r="3.5" transform="rotate(30.3691 273.126 76.8571)" fill="#00799F"/>
<circle cx="248.802" cy="34.3299" r="3.5" transform="rotate(30.3691 248.802 34.3299)" fill="#00799F"/>
</svg>
