<svg width="438" height="180" viewBox="0 0 438 180" fill="none" xmlns="http://www.w3.org/2000/svg">
<circle cx="243.89" cy="142.031" r="3.5" transform="rotate(3.21014 243.89 142.031)" fill="#00799F"/>
<circle cx="360.115" cy="149.585" r="3.5" transform="rotate(30.3691 360.115 149.585)" fill="#00799F"/>
<circle cx="65.5925" cy="161.431" r="3.5" transform="rotate(30.3691 65.5925 161.431)" fill="#00799F"/>
<circle cx="387.131" cy="174.688" r="3.5" transform="rotate(30.3691 387.131 174.688)" fill="#00799F"/>
<circle cx="394.708" cy="128.13" r="3.5" transform="rotate(30.3691 394.708 128.13)" fill="#00799F"/>
<circle cx="432.374" cy="154.838" r="3.5" transform="rotate(30.3691 432.374 154.838)" fill="#00799F"/>
<circle cx="40.7892" cy="84.5676" r="3.5" transform="rotate(3.21014 40.7892 84.5676)" fill="#00799F"/>
<circle cx="89.1798" cy="150.381" r="3.5" transform="rotate(3.21014 89.1798 150.381)" fill="#00799F"/>
<circle cx="188.165" cy="99.8443" r="3.5" transform="rotate(3.21014 188.165 99.8443)" fill="#00799F"/>
<circle cx="324.251" cy="48.5962" r="3.5" transform="rotate(30.3691 324.251 48.5962)" fill="#00799F"/>
<circle cx="211.111" cy="30.0197" r="3.5" transform="rotate(3.21014 211.111 30.0197)" fill="#00799F"/>
<circle cx="186.69" cy="3.6905" r="3.5" transform="rotate(3.21014 186.69 3.6905)" fill="#00799F"/>
<circle cx="274.628" cy="22.5649" r="3.5" transform="rotate(3.21014 274.628 22.5649)" fill="#00799F"/>
<circle cx="246.774" cy="37.0278" r="3.5" transform="rotate(3.21014 246.774 37.0278)" fill="#00799F"/>
<circle cx="361.741" cy="91.427" r="3.5" transform="rotate(30.3691 361.741 91.427)" fill="#00799F"/>
<circle cx="225.499" cy="94.9273" r="3.5" transform="rotate(3.21014 225.499 94.9273)" fill="#00799F"/>
<circle cx="68.6905" cy="58.6905" r="3.5" transform="rotate(3.21014 68.6905 58.6905)" fill="#00799F"/>
<circle cx="120.075" cy="153.115" r="3.5" transform="rotate(3.21014 120.075 153.115)" fill="#00799F"/>
<circle cx="217.828" cy="124.544" r="3.5" transform="rotate(3.21014 217.828 124.544)" fill="#00799F"/>
<circle cx="4.78927" cy="113.789" r="3.5" transform="rotate(30.3691 4.78927 113.789)" fill="#00799F"/>
<circle cx="209.375" cy="60.9711" r="3.5" transform="rotate(3.21014 209.375 60.9711)" fill="#00799F"/>
<circle cx="121.691" cy="29.6905" r="3.5" transform="rotate(3.21014 121.691 29.6905)" fill="#00799F"/>
<circle cx="291.365" cy="40.4595" r="3.5" transform="rotate(30.3691 291.365 40.4595)" fill="#00799F"/>
<circle cx="21.6905" cy="126.69" r="3.5" transform="rotate(3.21014 21.6905 126.69)" fill="#00799F"/>
</svg>
