<svg width="449" height="169" viewBox="0 0 449 169" fill="none" xmlns="http://www.w3.org/2000/svg">
<circle cx="185.942" cy="143.795" r="3.5" transform="rotate(3.21014 185.942 143.795)" fill="#00799F"/>
<circle cx="186.894" cy="126.822" r="3.5" transform="rotate(3.21014 186.894 126.822)" fill="#00799F"/>
<circle cx="264.781" cy="113.162" r="3.5" transform="rotate(3.21014 264.781 113.162)" fill="#00799F"/>
<circle cx="360.937" cy="164.132" r="3.5" transform="rotate(30.3691 360.937 164.132)" fill="#00799F"/>
<circle cx="309.857" cy="150.427" r="3.5" transform="rotate(30.3691 309.857 150.427)" fill="#00799F"/>
<circle cx="75.2663" cy="103.509" r="3.5" transform="rotate(30.3691 75.2663 103.509)" fill="#00799F"/>
<circle cx="94.9727" cy="140.696" r="3.5" transform="rotate(3.21014 94.9727 140.696)" fill="#00799F"/>
<circle cx="68.9957" cy="68.1278" r="3.5" transform="rotate(3.21014 68.9957 68.1278)" fill="#00799F"/>
<circle cx="302.864" cy="42.7187" r="3.5" transform="rotate(30.3691 302.864 42.7187)" fill="#00799F"/>
<circle cx="305.386" cy="4.78924" r="3.5" transform="rotate(30.3691 305.386 4.78924)" fill="#00799F"/>
<circle cx="67.2696" cy="81.0513" r="3.5" transform="rotate(3.21014 67.2696 81.0513)" fill="#00799F"/>
<circle cx="268.172" cy="5.00409" r="3.5" transform="rotate(30.3691 268.172 5.00409)" fill="#00799F"/>
<circle cx="392.364" cy="68.9621" r="3.5" transform="rotate(30.3691 392.364 68.9621)" fill="#00799F"/>
<circle cx="85.6905" cy="11.6284" r="3.5" transform="rotate(3.21014 85.6905 11.6284)" fill="#00799F"/>
<circle cx="443.625" cy="100.159" r="3.5" transform="rotate(30.3691 443.625 100.159)" fill="#00799F"/>
<circle cx="341.017" cy="75.3718" r="3.5" transform="rotate(3.21014 341.017 75.3718)" fill="#00799F"/>
<circle cx="316.69" cy="17.6284" r="3.5" transform="rotate(3.21014 316.69 17.6284)" fill="#00799F"/>
<circle cx="93.5333" cy="111.895" r="3.5" transform="rotate(30.3691 93.5333 111.895)" fill="#00799F"/>
<circle cx="201.517" cy="62.5399" r="3.5" transform="rotate(3.21014 201.517 62.5399)" fill="#00799F"/>
<circle cx="147.339" cy="135.621" r="3.5" transform="rotate(3.21014 147.339 135.621)" fill="#00799F"/>
<circle cx="124.758" cy="145.372" r="3.5" transform="rotate(3.21014 124.758 145.372)" fill="#00799F"/>
<circle cx="109.277" cy="153.517" r="3.5" transform="rotate(3.21014 109.277 153.517)" fill="#00799F"/>
<circle cx="302.976" cy="98.8747" r="3.5" transform="rotate(30.3691 302.976 98.8747)" fill="#00799F"/>
<circle cx="324.249" cy="115.976" r="3.5" transform="rotate(30.3691 324.249 115.976)" fill="#00799F"/>
<circle cx="4.78921" cy="120.727" r="3.5" transform="rotate(30.3691 4.78921 120.727)" fill="#00799F"/>
<circle cx="221.626" cy="7.57978" r="3.5" transform="rotate(3.21014 221.626 7.57978)" fill="#00799F"/>
<circle cx="169.69" cy="27.6284" r="3.5" transform="rotate(3.21014 169.69 27.6284)" fill="#00799F"/>
<circle cx="313.114" cy="67.7266" r="3.5" transform="rotate(30.3691 313.114 67.7266)" fill="#00799F"/>
<circle cx="39.6905" cy="150.628" r="3.5" transform="rotate(3.21014 39.6905 150.628)" fill="#00799F"/>
<circle cx="284.685" cy="26.2711" r="3.5" transform="rotate(30.3691 284.685 26.2711)" fill="#00799F"/>
</svg>
