<svg width="369" height="129" viewBox="0 0 369 129" fill="none" xmlns="http://www.w3.org/2000/svg">
<circle cx="344.69" cy="27.1531" r="3.5" transform="rotate(3.21014 344.69 27.1531)" fill="#00799F"/>
<circle cx="73.3551" cy="97.1293" r="3.5" transform="rotate(30.3691 73.3551 97.1293)" fill="#00799F"/>
<circle cx="278.767" cy="60.8072" r="3.5" transform="rotate(3.21014 278.767 60.8072)" fill="#00799F"/>
<circle cx="305.995" cy="75.3548" r="3.5" transform="rotate(3.21014 305.995 75.3548)" fill="#00799F"/>
<circle cx="273.873" cy="83.5154" r="3.5" transform="rotate(30.3691 273.873 83.5154)" fill="#00799F"/>
<circle cx="143.997" cy="124.36" r="3.5" transform="rotate(3.21014 143.997 124.36)" fill="#00799F"/>
<circle cx="125.367" cy="67.4318" r="3.5" transform="rotate(30.3691 125.367 67.4318)" fill="#00799F"/>
<circle cx="35.6905" cy="40.1531" r="3.5" transform="rotate(3.21014 35.6905 40.1531)" fill="#00799F"/>
<circle cx="283.789" cy="77.2519" r="3.5" transform="rotate(30.3691 283.789 77.2519)" fill="#00799F"/>
<circle cx="92.3775" cy="80.4005" r="3.5" transform="rotate(3.21014 92.3775 80.4005)" fill="#00799F"/>
<circle cx="125.811" cy="109.318" r="3.5" transform="rotate(3.21014 125.811 109.318)" fill="#00799F"/>
<circle cx="191.419" cy="28.8657" r="3.5" transform="rotate(3.21014 191.419 28.8657)" fill="#00799F"/>
<circle cx="132.298" cy="3.6905" r="3.5" transform="rotate(3.21014 132.298 3.6905)" fill="#00799F"/>
<circle cx="156.464" cy="44.9335" r="3.5" transform="rotate(3.21014 156.464 44.9335)" fill="#00799F"/>
<circle cx="27.6905" cy="79.1531" r="3.5" transform="rotate(3.21014 27.6905 79.1531)" fill="#00799F"/>
<circle cx="265.921" cy="27.858" r="3.5" transform="rotate(30.3691 265.921 27.858)" fill="#00799F"/>
<circle cx="261.523" cy="46.8197" r="3.5" transform="rotate(3.21014 261.523 46.8197)" fill="#00799F"/>
<circle cx="3.69048" cy="68.1531" r="3.5" transform="rotate(3.21014 3.69048 68.1531)" fill="#00799F"/>
<circle cx="249.757" cy="60.1817" r="3.5" transform="rotate(3.21014 249.757 60.1817)" fill="#00799F"/>
<circle cx="245.008" cy="19.8525" r="3.5" transform="rotate(3.21014 245.008 19.8525)" fill="#00799F"/>
<circle cx="364.191" cy="93.5545" r="3.5" transform="rotate(30.3691 364.191 93.5545)" fill="#00799F"/>
<circle cx="71.6905" cy="14.1531" r="3.5" transform="rotate(3.21014 71.6905 14.1531)" fill="#00799F"/>
</svg>
